# Blender 4.2.0
# www.blender.org
mtllib torch.mtl
g Object_2_Object_0
v -0.122212 -0.624303 0.122242
v -0.122212 0.624303 0.122242
v -0.122212 0.624303 -0.122242
v -0.122212 -0.624303 -0.122242
v -0.122212 -0.624303 -0.122242
v -0.122212 0.624303 -0.122242
v 0.122212 0.624303 -0.122242
v 0.122212 -0.624303 -0.122242
v 0.122212 -0.624303 -0.122242
v 0.122212 0.624303 -0.122242
v 0.122212 0.624303 0.122242
v 0.122212 -0.624303 0.122242
v 0.122212 -0.624303 0.122242
v 0.122212 0.624303 0.122242
v -0.122212 0.624303 0.122242
v -0.122212 -0.624303 0.122242
v -0.122212 -0.624303 -0.122242
v 0.122212 -0.624303 -0.122242
v 0.122212 -0.624303 0.122242
v -0.122212 -0.624303 0.122242
v 0.122212 0.624303 -0.122242
v -0.122212 0.624303 -0.122242
v -0.122212 0.624303 0.122242
v 0.122212 0.624303 0.122242
vn -1.0000 -0.0000 -0.0000
vn -0.0000 -0.0000 -1.0000
vn 1.0000 -0.0000 -0.0000
vn -0.0000 -0.0000 1.0000
vn -0.0000 -1.0000 -0.0000
vn -0.0000 1.0000 -0.0000
vt 0.000000 0.000000
vt 0.000000 1.000000
vt 0.200029 1.000000
vt 0.200029 0.000000
vt 0.400059 0.000000
vt 0.400059 1.000000
vt 0.600039 1.000000
vt 0.600039 0.000000
vt 0.800020 1.000000
vt 0.800020 0.000000
vt 0.800020 0.804195
vt 1.000000 0.804195
vt 1.000000 0.608390
vt 0.800020 0.608390
vt 1.000000 1.000000
s 0
g Object_2_Material.003
usemtl Material.003
f 1/1/1 2/2/1 3/3/1
f 1/1/1 3/3/1 4/4/1
f 5/5/2 6/6/2 7/7/2
f 5/5/2 7/7/2 8/8/2
f 9/6/3 10/5/3 11/4/3
f 9/6/3 11/4/3 12/3/3
f 13/8/4 14/7/4 15/9/4
f 13/8/4 15/9/4 16/10/4
f 17/11/5 18/12/5 19/13/5
f 17/11/5 19/13/5 20/14/5
f 21/12/6 22/11/6 23/9/6
f 21/12/6 23/9/6 24/15/6
